<?xml version="1.0" encoding="UTF-8" standalone="no"?>
<!-- Created with Inkscape (http://www.inkscape.org/) -->

<svg
   xmlns:dc="http://purl.org/dc/elements/1.1/"
   xmlns:cc="http://creativecommons.org/ns#"
   xmlns:rdf="http://www.w3.org/1999/02/22-rdf-syntax-ns#"
   xmlns:svg="http://www.w3.org/2000/svg"
   xmlns="http://www.w3.org/2000/svg"
   xmlns:xlink="http://www.w3.org/1999/xlink"
   xmlns:sodipodi="http://sodipodi.sourceforge.net/DTD/sodipodi-0.dtd"
   xmlns:inkscape="http://www.inkscape.org/namespaces/inkscape"
   width="120mm"
   height="120mm"
   viewBox="0 0 120 120"
   version="1.1"
   id="svg8"
   inkscape:version="0.92.4 5da689c313, 2019-01-14"
   sodipodi:docname="quarantine.svg">
  <defs
     id="defs2">
    <linearGradient
       inkscape:collect="always"
       id="linearGradient1791">
      <stop
         style="stop-color:#000000;stop-opacity:1;"
         offset="0"
         id="stop1787" />
      <stop
         style="stop-color:#000000;stop-opacity:0;"
         offset="1"
         id="stop1789" />
    </linearGradient>
    <linearGradient
       id="linearGradient870"
       inkscape:collect="always">
      <stop
         id="stop866"
         offset="0"
         style="stop-color:#ffffff;stop-opacity:0.61960787" />
      <stop
         id="stop868"
         offset="1"
         style="stop-color:#ffc02b;stop-opacity:0.01869159" />
    </linearGradient>
    <linearGradient
       inkscape:collect="always"
       id="linearGradient836">
      <stop
         style="stop-color:#f8a000;stop-opacity:1"
         offset="0"
         id="stop832" />
      <stop
         style="stop-color:#ffd72b;stop-opacity:1"
         offset="1"
         id="stop834" />
    </linearGradient>
    <radialGradient
       inkscape:collect="always"
       xlink:href="#linearGradient836"
       id="radialGradient840"
       cx="21.166666"
       cy="170"
       fx="21.166666"
       fy="170"
       r="41.707275"
       gradientUnits="userSpaceOnUse"
       gradientTransform="matrix(1.8577375,-0.56539859,0.44406726,1.459078,-93.646878,-66.075648)" />
    <radialGradient
       inkscape:collect="always"
       xlink:href="#linearGradient870"
       id="radialGradient840-0"
       cx="46.348877"
       cy="188.26717"
       fx="46.348877"
       fy="188.26717"
       r="41.707275"
       gradientUnits="userSpaceOnUse"
       gradientTransform="matrix(-1.3431184,-1.4296452,1.581473,-1.4857637,-149.29771,515.82315)" />
    <linearGradient
       inkscape:collect="always"
       xlink:href="#linearGradient1791"
       id="linearGradient1793"
       x1="16.989298"
       y1="143.0526"
       x2="86.374588"
       y2="143.0526"
       gradientUnits="userSpaceOnUse" />
  </defs>
  <sodipodi:namedview
     id="base"
     pagecolor="#ffffff"
     bordercolor="#666666"
     borderopacity="1.0"
     inkscape:pageopacity="0.0"
     inkscape:pageshadow="2"
     inkscape:zoom="0.98994949"
     inkscape:cx="125.59689"
     inkscape:cy="219.49357"
     inkscape:document-units="mm"
     inkscape:current-layer="layer1"
     showgrid="false"
     inkscape:window-width="4500"
     inkscape:window-height="2977"
     inkscape:window-x="0"
     inkscape:window-y="23"
     inkscape:window-maximized="0"
     fit-margin-top="0"
     fit-margin-left="0"
     fit-margin-right="0"
     fit-margin-bottom="0">
    <inkscape:grid
       type="xygrid"
       id="grid817"
       originx="5.2097552"
       originy="-93.947249" />
  </sodipodi:namedview>
  <metadata
     id="metadata5">
    <rdf:RDF>
      <cc:Work
         rdf:about="">
        <dc:format>image/svg+xml</dc:format>
        <dc:type
           rdf:resource="http://purl.org/dc/dcmitype/StillImage" />
        <dc:title></dc:title>
      </cc:Work>
    </rdf:RDF>
  </metadata>
  <g
     inkscape:label="Layer 1"
     inkscape:groupmode="layer"
     id="layer1"
     transform="translate(5.2097552,-83.05275)">
    <g
       id="g1798"
       transform="matrix(1.4390544,0,0,1.4390544,-24.055898,-62.807938)">
      <circle
         r="41.694046"
         cy="143.05275"
         cx="54.790245"
         id="path815"
         style="opacity:1;vector-effect:none;fill:url(#radialGradient840);fill-opacity:1;stroke:none;stroke-width:0.02645833;stroke-linecap:butt;stroke-linejoin:miter;stroke-miterlimit:4;stroke-dasharray:none;stroke-dashoffset:0;stroke-opacity:1" />
      <circle
         r="41.694046"
         cy="143.05275"
         cx="54.790245"
         id="path815-3"
         style="opacity:1;vector-effect:none;fill:url(#radialGradient840-0);fill-opacity:1;stroke:none;stroke-width:0.02645833;stroke-linecap:butt;stroke-linejoin:miter;stroke-miterlimit:4;stroke-dasharray:none;stroke-dashoffset:0;stroke-opacity:1" />
      <path
         inkscape:connector-curvature="0"
         id="path1139"
         d="m 64.389984,104.33927 a 20.76016,20.76016 0 0 0 -9.641147,2.99026 20.76016,20.76016 0 0 0 -7.176943,7.34925 20.76016,20.76016 0 0 0 -2.760319,10.38857 20.760159,20.760159 0 0 0 -0.11297,0.0616 20.76016,20.76016 0 0 0 -10.345203,-2.79741 20.76016,20.76016 0 0 0 -11.216434,3.29035 h -5.71e-4 a 20.76016,20.76016 0 0 0 -6.090616,6.02958 17.355055,17.355055 0 0 1 0.941406,-1.00987 17.355055,17.355055 0 0 1 1.303137,-1.14511 17.355055,17.355055 0 0 1 1.410968,-1.0093 17.355055,17.355055 0 0 1 1.50511,-0.86266 17.355055,17.355055 0 0 1 1.583275,-0.70862 17.355055,17.355055 0 0 1 1.646037,-0.54715 17.355055,17.355055 0 0 1 1.692818,-0.38 17.355055,17.355055 0 0 1 1.721918,-0.20938 17.355055,17.355055 0 0 1 1.227825,-0.0434 17.355055,17.355055 0 0 1 1.732759,0.0867 17.355055,17.355055 0 0 1 1.715641,0.2596 17.355055,17.355055 0 0 1 1.680271,0.42905 17.355055,17.355055 0 0 1 1.630056,0.59509 17.355055,17.355055 0 0 1 1.561597,0.75427 17.355055,17.355055 0 0 1 1.478864,0.9066 17.355055,17.355055 0 0 1 0.134077,0.10149 20.760159,20.760159 0 0 0 -2.849321,3.80384 20.760159,20.760159 0 0 0 2.880133,24.60269 17.355055,17.355055 0 0 1 -0.587094,0.41991 17.355055,17.355055 0 0 1 -1.504543,0.86267 17.355055,17.355055 0 0 1 -1.583274,0.70862 17.355055,17.355055 0 0 1 -1.646607,0.54716 17.355055,17.355055 0 0 1 -1.692247,0.37999 17.355055,17.355055 0 0 1 -1.722491,0.20939 17.355055,17.355055 0 0 1 -1.227821,0.0432 17.355055,17.355055 0 0 1 -1.732189,-0.0867 17.355055,17.355055 0 0 1 -1.715643,-0.25961 17.355055,17.355055 0 0 1 -1.680838,-0.42903 17.355055,17.355055 0 0 1 -1.630062,-0.5951 17.355055,17.355055 0 0 1 -1.561593,-0.75426 17.355055,17.355055 0 0 1 -1.478864,-0.90718 17.355055,17.355055 0 0 1 -1.381301,-1.04982 17.355055,17.355055 0 0 1 -1.268901,-1.18217 17.355055,17.355055 0 0 1 -0.639587,-0.72803 20.76016,20.76016 0 0 0 17.364105,9.39696 20.76016,20.76016 0 0 0 10.406824,-2.82079 20.760159,20.760159 0 0 0 5.69e-4,5.7e-4 20.760159,20.760159 0 0 0 0.128945,0.0661 20.76016,20.76016 0 0 0 2.75119,10.34063 20.76016,20.76016 0 0 0 16.723949,10.3281 17.355055,17.355055 0 0 1 -1.343644,-0.30981 17.355055,17.355055 0 0 1 -1.643182,-0.55629 17.355055,17.355055 0 0 1 -1.579282,-0.71718 17.355055,17.355055 0 0 1 -1.499973,-0.87179 17.355055,17.355055 0 0 1 -1.405835,-1.01673 17.355055,17.355055 0 0 1 -1.296861,-1.15251 17.355055,17.355055 0 0 1 -1.175333,-1.27575 17.355055,17.355055 0 0 1 -1.041822,-1.38701 17.355055,17.355055 0 0 1 -0.651566,-1.04182 17.355055,17.355055 0 0 1 -0.791355,-1.54391 17.355055,17.355055 0 0 1 -0.633307,-1.61466 17.355055,17.355055 0 0 1 -0.468993,-1.66998 17.355055,17.355055 0 0 1 -0.299537,-1.70938 17.355055,17.355055 0 0 1 -0.127234,-1.7299 17.355055,17.355055 0 0 1 0.04564,-1.7339 17.355055,17.355055 0 0 1 0.01997,-0.15805 20.760159,20.760159 0 0 0 22.647393,-9.84482 20.760159,20.760159 0 0 0 1.883956,-4.41892 17.355055,17.355055 0 0 1 0.712046,0.32352 17.355055,17.355055 0 0 1 1.499977,0.87179 17.355055,17.355055 0 0 1 1.40526,1.01671 17.355055,17.355055 0 0 1 1.29686,1.15252 17.355055,17.355055 0 0 1 1.175331,1.27575 17.355055,17.355055 0 0 1 1.041825,1.387 17.355055,17.355055 0 0 1 0.651568,1.04126 17.355055,17.355055 0 0 1 0.79135,1.5439 17.355055,17.355055 0 0 1 0.633311,1.61523 17.355055,17.355055 0 0 1 0.468423,1.66999 17.355055,17.355055 0 0 1 0.30011,1.70881 17.355055,17.355055 0 0 1 0.127231,1.73048 17.355055,17.355055 0 0 1 -0.04565,1.73389 17.355055,17.355055 0 0 1 -0.21852,1.72077 17.355055,17.355055 0 0 1 -0.389685,1.69055 17.355055,17.355055 0 0 1 -0.310951,0.91857 20.76016,20.76016 0 0 0 -0.544305,-19.73645 20.76016,20.76016 0 0 0 -7.71554,-7.64079 20.760159,20.760159 0 0 0 -5.7e-4,-0.008 20.76016,20.76016 0 0 0 7.647075,-7.58946 20.76016,20.76016 0 0 0 0.583101,-19.64686 17.355055,17.355055 0 0 1 0.40338,1.31796 17.355055,17.355055 0 0 1 0.340046,1.70081 17.355055,17.355055 0 0 1 0.168311,1.72706 17.355055,17.355055 0 0 1 -0.0046,1.73446 17.355055,17.355055 0 0 1 -0.178013,1.72593 17.355055,17.355055 0 0 1 -0.349174,1.69908 17.355055,17.355055 0 0 1 -0.517488,1.65573 17.355055,17.355055 0 0 1 -0.680096,1.59584 17.355055,17.355055 0 0 1 -0.576257,1.08519 17.355055,17.355055 0 0 1 -0.940834,1.4566 17.355055,17.355055 0 0 1 -1.082904,1.3562 17.355055,17.355055 0 0 1 -1.211847,1.24094 17.355055,17.355055 0 0 1 -1.329951,1.11372 17.355055,17.355055 0 0 1 -1.434362,0.97565 17.355055,17.355055 0 0 1 -1.525079,0.82785 17.355055,17.355055 0 0 1 -0.183145,0.077 20.760159,20.760159 0 0 0 -9.489382,-12.00836 20.760159,20.760159 0 0 0 -11.35907,-2.75804 20.760159,20.760159 0 0 0 -3.742804,0.53633 17.355055,17.355055 0 0 1 -0.06619,-0.67726 17.355055,17.355055 0 0 1 0.0046,-1.73446 17.355055,17.355055 0 0 1 0.178009,-1.72591 17.355055,17.355055 0 0 1 0.349179,-1.69911 17.355055,17.355055 0 0 1 0.517487,-1.65573 17.355055,17.355055 0 0 1 0.680094,-1.59582 17.355055,17.355055 0 0 1 0.576257,-1.0852 17.355055,17.355055 0 0 1 0.940835,-1.45717 17.355055,17.355055 0 0 1 1.082905,-1.35563 17.355055,17.355055 0 0 1 1.211845,-1.24094 17.355055,17.355055 0 0 1 1.329954,-1.11372 17.355055,17.355055 0 0 1 1.434358,-0.97563 17.355055,17.355055 0 0 1 1.525082,-0.82788 17.355055,17.355055 0 0 1 1.59925,-0.67096 17.355055,17.355055 0 0 1 1.659156,-0.50779 17.355055,17.355055 0 0 1 0.948255,-0.18942 z m -10.067919,21.37792 a 17.355053,17.355053 0 0 1 1.735042,0.004 17.355053,17.355053 0 0 1 1.725343,0.17801 17.355053,17.355053 0 0 1 1.699094,0.34975 17.355053,17.355053 0 0 1 1.656306,0.51693 17.355053,17.355053 0 0 1 1.595831,0.68008 17.355053,17.355053 0 0 1 1.084613,0.57626 17.355053,17.355053 0 0 1 1.457183,0.9414 17.355053,17.355053 0 0 1 1.356197,1.08233 17.355053,17.355053 0 0 1 1.240943,1.21185 17.355053,17.355053 0 0 1 1.113714,1.32996 17.355053,17.355053 0 0 1 0.975641,1.43436 17.355053,17.355053 0 0 1 0.827296,1.52508 17.355053,17.355053 0 0 1 0.670964,1.59981 17.355053,17.355053 0 0 1 0.326926,1.0658 17.355055,17.355055 0 0 1 -1.553034,0.31038 17.355055,17.355055 0 0 1 -1.726483,0.1683 17.355055,17.355055 0 0 1 -1.735042,-0.005 17.355055,17.355055 0 0 1 -1.725341,-0.17799 17.355055,17.355055 0 0 1 -1.699097,-0.3492 17.355055,17.355055 0 0 1 -1.656306,-0.5175 17.355055,17.355055 0 0 1 -1.510245,-0.64357 l -2.14755,3.71996 a 3.6504948,3.6504948 0 0 1 0.203118,0.26988 3.6504948,3.6504948 0 0 1 0.136931,0.21909 3.6504948,3.6504948 0 0 1 0.166029,0.32465 3.6504948,3.6504948 0 0 1 0.13351,0.34005 3.6504948,3.6504948 0 0 1 0.09871,0.35089 3.6504948,3.6504948 0 0 1 0.06276,0.35945 3.6504948,3.6504948 0 0 1 0.02682,0.36399 3.6504948,3.6504948 0 0 1 -0.0098,0.36458 3.6504948,3.6504948 0 0 1 -0.04564,0.36173 3.6504948,3.6504948 0 0 1 0,5.7e-4 3.6504948,3.6504948 0 0 1 -0.08216,0.35546 3.6504948,3.6504948 0 0 1 -0.116962,0.34576 3.6504948,3.6504948 0 0 1 -0.09014,0.1974 3.6504948,3.6504948 0 0 1 -0.06105,0.13466 3.6504948,3.6504948 0 0 1 -0.183149,0.3155 3.6504948,3.6504948 0 0 1 -0.213956,0.29555 3.6504948,3.6504948 0 0 1 -0.0016,0.002 v 5.6e-4 l 2.198898,3.80786 a 17.355055,17.355055 0 0 1 0.366865,-0.18829 17.355055,17.355055 0 0 1 1.615223,-0.63332 17.355055,17.355055 0 0 1 1.67057,-0.46841 17.355055,17.355055 0 0 1 1.708227,-0.30011 17.355055,17.355055 0 0 1 1.730477,-0.12724 17.355055,17.355055 0 0 1 1.733899,0.0457 17.355055,17.355055 0 0 1 1.720776,0.21853 17.355055,17.355055 0 0 1 0.983629,0.22652 17.355053,17.355053 0 0 1 -0.358875,1.1485 17.355053,17.355053 0 0 1 -0.680095,1.59583 17.355053,17.355053 0 0 1 -0.576257,1.08518 17.355053,17.355053 0 0 1 -0.941407,1.45718 17.355053,17.355053 0 0 1 -1.08176,1.35563 17.355053,17.355053 0 0 1 -1.212418,1.24096 17.355053,17.355053 0 0 1 -1.329953,1.11427 17.355053,17.355053 0 0 1 -1.43436,0.97564 17.355053,17.355053 0 0 1 -1.52508,0.8273 17.355053,17.355053 0 0 1 -1.59925,0.67097 17.355053,17.355053 0 0 1 -1.659157,0.50779 17.355053,17.355053 0 0 1 -1.70081,0.34003 17.355053,17.355053 0 0 1 -1.727054,0.16832 17.355053,17.355053 0 0 1 -1.734469,-0.004 17.355053,17.355053 0 0 1 -1.725912,-0.178 17.355053,17.355053 0 0 1 -1.402411,-0.2887 17.355055,17.355055 0 0 1 0.520342,-1.53592 17.355055,17.355055 0 0 1 0.717181,-1.57985 17.355055,17.355055 0 0 1 0.871798,-1.49997 17.355055,17.355055 0 0 1 1.017289,-1.40528 17.355055,17.355055 0 0 1 1.15194,-1.29685 17.355055,17.355055 0 0 1 1.275749,-1.1759 17.355055,17.355055 0 0 1 1.312266,-0.98534 l -2.194921,-3.80164 a 3.6504948,3.6504948 0 0 1 -0.106122,0.019 3.6504948,3.6504948 0 0 1 -0.363439,0.0268 3.6504948,3.6504948 0 0 1 -0.365152,-0.009 3.6504948,3.6504948 0 0 1 -0.130085,-0.0165 3.6504948,3.6504948 0 0 1 -0.231643,-0.0298 3.6504948,3.6504948 0 0 1 -0.35545,-0.0822 3.6504948,3.6504948 0 0 1 -0.345757,-0.11697 3.6504948,3.6504948 0 0 1 -0.332058,-0.15062 3.6504948,3.6504948 0 0 1 -0.315512,-0.18315 3.6504948,3.6504948 0 0 1 -0.296117,-0.21395 3.6504948,3.6504948 0 0 1 -0.272723,-0.24248 3.6504948,3.6504948 0 0 1 -0.247046,-0.26872 3.6504948,3.6504948 0 0 1 -0.138074,-0.18373 3.6504948,3.6504948 0 0 1 -0.08103,-0.10781 3.6504948,3.6504948 0 0 1 -0.136931,-0.21909 3.6504948,3.6504948 0 0 1 -0.166603,-0.32465 3.6504948,3.6504948 0 0 1 -0.04735,-0.12095 h -4.470255 a 17.355055,17.355055 0 0 1 -0.02053,0.41194 17.355055,17.355055 0 0 1 -0.25903,1.71506 17.355055,17.355055 0 0 1 -0.429053,1.68084 17.355055,17.355055 0 0 1 -0.595083,1.63006 17.355055,17.355055 0 0 1 -0.754839,1.56217 17.355055,17.355055 0 0 1 -0.906033,1.47885 17.355055,17.355055 0 0 1 -1.050382,1.38074 17.355055,17.355055 0 0 1 -0.729732,0.78338 17.355053,17.355053 0 0 1 -0.212813,-0.2077 17.355053,17.355053 0 0 1 -1.114287,-1.32993 17.355053,17.355053 0 0 1 -0.975068,-1.43495 17.355053,17.355053 0 0 1 -0.827865,-1.5245 17.355053,17.355053 0 0 1 -0.670969,-1.59982 17.355053,17.355053 0 0 1 -0.507788,-1.65859 17.355053,17.355053 0 0 1 -0.340048,-1.70138 17.355053,17.355053 0 0 1 -0.168311,-1.7265 17.355053,17.355053 0 0 1 0.0051,-1.73503 17.355053,17.355053 0 0 1 0.178009,-1.72534 17.355053,17.355053 0 0 1 0.349177,-1.6991 17.355053,17.355053 0 0 1 0.51749,-1.65573 17.355053,17.355053 0 0 1 0.680093,-1.59641 17.355053,17.355053 0 0 1 0.575686,-1.08461 17.355053,17.355053 0 0 1 0.941406,-1.45717 17.355053,17.355053 0 0 1 1.082332,-1.3562 17.355053,17.355053 0 0 1 0.467282,-0.47812 17.355055,17.355055 0 0 1 1.070922,1.21926 17.355055,17.355055 0 0 1 1.009299,1.41155 17.355055,17.355055 0 0 1 0.863243,1.50453 17.355055,17.355055 0 0 1 0.708621,1.58327 17.355055,17.355055 0 0 1 0.547159,1.64662 17.355055,17.355055 0 0 1 0.379985,1.69225 17.355055,17.355055 0 0 1 0.197409,1.62948 h 4.41149 a 3.6504948,3.6504948 0 0 1 0.0274,-0.0805 3.6504948,3.6504948 0 0 1 0.151195,-0.33204 3.6504948,3.6504948 0 0 1 0.183148,-0.31551 3.6504948,3.6504948 0 0 1 0.213956,-0.29555 3.6504948,3.6504948 0 0 1 0.242484,-0.27273 3.6504948,3.6504948 0 0 1 0.268159,-0.24762 3.6504948,3.6504948 0 0 1 0.29212,-0.21909 3.6504948,3.6504948 0 0 1 0.21909,-0.13693 3.6504948,3.6504948 0 0 1 0.324642,-0.16659 3.6504948,3.6504948 0 0 1 0.339476,-0.13294 3.6504948,3.6504948 0 0 1 0.351461,-0.0987 3.6504948,3.6504948 0 0 1 0.359447,-0.0628 3.6504948,3.6504948 0 0 1 0.364009,-0.0268 3.6504948,3.6504948 0 0 1 0.364583,0.009 3.6504948,3.6504948 0 0 1 0.241341,0.0303 l 2.167517,-3.7548 a 17.355055,17.355055 0 0 1 -0.345751,-0.22365 17.355055,17.355055 0 0 1 -1.356197,-1.08176 17.355055,17.355055 0 0 1 -1.241517,-1.21242 17.355055,17.355055 0 0 1 -1.113143,-1.32995 17.355055,17.355055 0 0 1 -0.975638,-1.43437 17.355055,17.355055 0 0 1 -0.827869,-1.52451 17.355055,17.355055 0 0 1 -0.670964,-1.59982 17.355055,17.355055 0 0 1 -0.326356,-1.06636 17.355053,17.355053 0 0 1 1.553038,-0.30979 17.355053,17.355053 0 0 1 1.726479,-0.16832 z"
         style="opacity:0.11300001;vector-effect:none;fill:url(#linearGradient1793);fill-opacity:1;stroke:none;stroke-width:0.02174762;stroke-linecap:butt;stroke-linejoin:miter;stroke-miterlimit:4;stroke-dasharray:none;stroke-dashoffset:0;stroke-opacity:1" />
    </g>
  </g>
</svg>
